<svg width="75px" height="75px"  viewBox="4.09967565536499 68.02799987792969 191.7082977294922 70.552001953125" xmlns="http://www.w3.org/2000/svg" preserveAspectRatio="xMidYMid meet" style="stroke-width: 0px;">
    <g>
        <path d="M156.472 90.541c-4.049 0-8.486-1.509-13.276-5.804-6.39-5.734-10.194-3.882-17.515.493-6.894 4.125-16.336 9.762-27.775-.493-6.39-5.734-10.192-3.882-17.515.493-6.896 4.125-16.334 9.762-27.775-.493-6.388-5.734-10.192-3.882-17.515.493-6.894 4.125-16.336 9.762-27.775-.493a4.34 4.34 0 0 1-.332-6.124 4.342 4.342 0 0 1 6.124-.332c6.394 5.738 10.204 3.893 17.532-.491 6.892-4.119 16.326-9.762 27.758.493 6.401 5.743 10.211 3.888 17.532-.493 6.892-4.119 16.324-9.762 27.758.493 6.401 5.743 10.211 3.888 17.532-.493 6.892-4.119 16.326-9.762 27.758.493 6.399 5.743 10.211 3.888 17.532-.493 6.892-4.119 16.324-9.762 27.758.493a4.333 4.333 0 0 1 .33 6.121 4.339 4.339 0 0 1-6.121.33c-6.39-5.734-10.194-3.88-17.515.495-4.008 2.399-8.878 5.31-14.5 5.312z"></path>
        <path d="M156.47 112.906c-4.047 0-8.484-1.507-13.274-5.802-6.394-5.747-10.194-3.886-17.518.491-6.89 4.125-16.33 9.768-27.773-.491-6.394-5.747-10.196-3.886-17.518.491-6.89 4.125-16.33 9.768-27.773-.491-6.392-5.747-10.196-3.886-17.518.491-6.89 4.125-16.33 9.768-27.773-.491a4.34 4.34 0 0 1-.332-6.124 4.342 4.342 0 0 1 6.124-.332c6.397 5.743 10.204 3.888 17.53-.493 6.892-4.119 16.328-9.771 27.76.495 6.401 5.74 10.209 3.886 17.53-.495 6.894-4.119 16.326-9.771 27.76.495 6.401 5.74 10.209 3.886 17.53-.495 6.892-4.119 16.328-9.771 27.76.495 6.399 5.74 10.207 3.886 17.53-.495 6.892-4.119 16.326-9.771 27.76.495a4.333 4.333 0 0 1 .33 6.121 4.333 4.333 0 0 1-6.121.33c-6.394-5.74-10.196-3.886-17.518.493-4.004 2.399-8.874 5.312-14.496 5.312z"></path>
        <path d="M156.47 134.123c-4.047.002-8.484-1.507-13.274-5.802-6.394-5.74-10.196-3.888-17.515.491-6.896 4.123-16.332 9.768-27.775-.491-6.397-5.74-10.198-3.888-17.515.491-6.894 4.123-16.332 9.768-27.775-.491-6.394-5.74-10.196-3.888-17.515.491-6.894 4.123-16.332 9.768-27.775-.491a4.34 4.34 0 0 1-.332-6.124 4.34 4.34 0 0 1 6.124-.332c6.397 5.743 10.202 3.888 17.532-.493 6.888-4.121 16.326-9.764 27.758.495 6.394 5.736 10.202 3.886 17.532-.495 6.888-4.121 16.324-9.764 27.758.495 6.397 5.736 10.204 3.886 17.532-.495 6.888-4.121 16.326-9.764 27.758.495 6.397 5.736 10.202 3.886 17.532-.495 6.89-4.121 16.324-9.764 27.758.495a4.333 4.333 0 0 1 .33 6.121 4.337 4.337 0 0 1-6.121.33c-6.394-5.736-10.196-3.886-17.515.493-4.01 2.399-8.88 5.312-14.502 5.312z"></path>
    </g>
</svg>