<svg width="75px" height="75px" xmlns="http://www.w3.org/2000/svg" viewBox="8.127006530761719 42.801998138427734 185.49899291992188 131.17298889160156" preserveAspectRatio="xMidYMid meet" style="stroke-width: 0px;width: 50px;">
    <g>
        <path d="M177.727 97.123l15.899-15.899c-23.731-23.738-56.524-38.422-92.742-38.422-36.219 0-69.012 14.684-92.757 38.422l15.898 15.899C43.7 77.452 70.871 65.289 100.884 65.289c30.011 0 57.182 12.163 76.843 31.834z"></path>
        <path d="M100.884 87.776c-23.804 0-45.354 9.651-60.945 25.253l15.899 15.902c11.536-11.539 27.464-18.669 45.047-18.669s33.51 7.13 45.046 18.669l15.899-15.902c-15.608-15.602-37.157-25.253-60.946-25.253z"></path>
        <path d="M100.884 132.749c-11.375 0-21.682 4.611-29.148 12.078l29.148 29.148 29.147-29.148c-7.467-7.467-17.773-12.078-29.147-12.078z"></path>
    </g>
</svg>